<svg width="38" height="38" viewBox="0 0 38 38" fill="none" xmlns="http://www.w3.org/2000/svg">
<g filter="url(#filter0_d_406_36)">
<path d="M19.0263 3C10.7266 3 4.00147 8.46471 4.00147 15.209C4.00147 18.1222 5.25465 20.7841 7.34545 22.8807C6.61173 25.8373 4.15995 28.4728 4.1306 28.5022C3.99853 28.6342 3.96185 28.8387 4.04256 29.0148C4.11603 29.1907 4.27868 29.2963 4.46945 29.2963C8.35814 29.2963 11.2255 27.4321 12.7223 26.2799C14.6358 27.0013 16.7724 27.418 19.0263 27.418C27.3261 27.418 34 21.9516 34 15.209C34 8.46647 27.3261 3 19.0263 3Z" fill="#3A536B"/>
</g>
<defs>
<filter id="filter0_d_406_36" x="-1" y="0" width="40" height="40" filterUnits="userSpaceOnUse" color-interpolation-filters="sRGB">
<feFlood flood-opacity="0" result="BackgroundImageFix"/>
<feColorMatrix in="SourceAlpha" type="matrix" values="0 0 0 0 0 0 0 0 0 0 0 0 0 0 0 0 0 0 127 0" result="hardAlpha"/>
<feOffset dy="4"/>
<feGaussianBlur stdDeviation="2"/>
<feComposite in2="hardAlpha" operator="out"/>
<feColorMatrix type="matrix" values="0 0 0 0 0 0 0 0 0 0 0 0 0 0 0 0 0 0 0.25 0"/>
<feBlend mode="normal" in2="BackgroundImageFix" result="effect1_dropShadow_406_36"/>
<feBlend mode="normal" in="SourceGraphic" in2="effect1_dropShadow_406_36" result="shape"/>
</filter>
</defs>
</svg>
